<?xml version="1.0" encoding="UTF-8"?><svg id="Layer_2" xmlns="http://www.w3.org/2000/svg" viewBox="0 0 302.95 188.36"><defs><style>.cls-1{fill:#f9d479;}.cls-2,.cls-3{font-family:Roboto-Bold, Roboto;font-size:8px;font-weight:700;}.cls-2,.cls-3,.cls-4{fill:#f6f7fb;}.cls-5{fill:#ff7990;}.cls-3{letter-spacing:-.03em;}.cls-6,.cls-7{fill:#8e9bfb;}.cls-7{font-family:Roboto-Medium, Roboto;font-size:6px;font-weight:500;}.cls-4{font-family:Roboto-Regular, Roboto;font-size:10px;}.cls-8{fill:none;stroke:#8e9bfb;stroke-miterlimit:10;stroke-width:.49px;}</style></defs><g id="Sleep"><line class="cls-8" x1="15.42" y1="150.45" x2="302.95" y2="150.45"/><line class="cls-8" x1="15.42" y1="137.69" x2="302.95" y2="137.69"/><line class="cls-8" x1="15.42" y1="124.93" x2="302.95" y2="124.93"/><line class="cls-8" x1="15.42" y1="112.17" x2="302.95" y2="112.17"/><line class="cls-8" x1="15.42" y1="99.41" x2="302.95" y2="99.41"/><line class="cls-8" x1="15.42" y1="86.65" x2="302.95" y2="86.65"/><line class="cls-8" x1="15.42" y1="73.89" x2="302.95" y2="73.89"/><line class="cls-8" x1="15.42" y1="61.13" x2="302.95" y2="61.13"/><line class="cls-8" x1="15.42" y1="48.37" x2="302.95" y2="48.37"/><line class="cls-8" x1="15.42" y1="35.61" x2="302.95" y2="35.61"/><line class="cls-8" x1="15.42" y1="163.21" x2="302.95" y2="163.21"/><text class="cls-4" transform="translate(2.81 165.82)"><tspan x="0" y="0">0</tspan></text><text class="cls-2" transform="translate(38.59 175.97)"><tspan x="0" y="0">M</tspan></text><text class="cls-3" transform="translate(78.08 175.97)"><tspan x="0" y="0">T</tspan></text><text class="cls-2" transform="translate(117.57 175.97)"><tspan x="0" y="0">W</tspan></text><text class="cls-2" transform="translate(157.06 175.97)"><tspan x="0" y="0">TH</tspan></text><text class="cls-2" transform="translate(196.54 175.97)"><tspan x="0" y="0">F</tspan></text><text class="cls-2" transform="translate(236.03 175.97)"><tspan x="0" y="0">SA</tspan></text><text class="cls-2" transform="translate(275.52 175.97)"><tspan x="0" y="0">SU</tspan></text><text class="cls-4" transform="translate(2.81 152.8)"><tspan x="0" y="0">1</tspan></text><text class="cls-4" transform="translate(2.81 139.78)"><tspan x="0" y="0">2</tspan></text><text class="cls-4" transform="translate(2.81 126.76)"><tspan x="0" y="0">3</tspan></text><text class="cls-4" transform="translate(2.81 113.73)"><tspan x="0" y="0">4</tspan></text><text class="cls-4" transform="translate(2.81 100.71)"><tspan x="0" y="0">5</tspan></text><text class="cls-4" transform="translate(2.81 87.69)"><tspan x="0" y="0">6</tspan></text><text class="cls-4" transform="translate(2.81 74.67)"><tspan x="0" y="0">7</tspan></text><text class="cls-4" transform="translate(2.81 61.65)"><tspan x="0" y="0">8</tspan></text><text class="cls-4" transform="translate(2.81 49.39)"><tspan x="0" y="0">9</tspan></text><text class="cls-4" transform="translate(0 36.75)"><tspan x="0" y="0">10</tspan></text><rect class="cls-5" x="41.4" y="87.69" width="14.34" height="75.52"/><rect class="cls-1" x="35.78" y="116.65" width="5.62" height="46.56"/><rect class="cls-6" x="67.06" y="93.04" width="14.34" height="70.18"/><rect class="cls-6" x="148.5" y="57.1" width="13.36" height="106.11"/><rect class="cls-6" x="187.14" y="64.19" width="13.36" height="99.03"/><rect class="cls-6" x="233.39" y="93.04" width="15.17" height="70.18"/><rect class="cls-6" x="273.65" y="64.19" width="13.87" height="99.03"/><rect class="cls-5" x="121.31" y="99.23" width="14.64" height="63.98"/><rect class="cls-5" x="81.4" y="61.13" width="14.15" height="102.09"/><rect class="cls-5" x="161.86" y="61.13" width="13.62" height="102.09"/><rect class="cls-5" x="200.5" y="38.62" width="13.75" height="124.18"/><rect class="cls-6" x="27.06" y="116.65" width="14.34" height="46.56"/><rect class="cls-6" x="107.01" y="116.65" width="14.34" height="46.56"/><rect class="cls-6" x="230.33" y="11.55" width="8.34" height="8.34"/><text class="cls-7" transform="translate(37.19 186.74)"><tspan x="0" y="0">3:36</tspan></text><text class="cls-7" transform="translate(73.87 186.74)"><tspan x="0" y="0">5:28</tspan></text><text class="cls-7" transform="translate(114.81 186.74)"><tspan x="0" y="0">3:46</tspan></text><text class="cls-7" transform="translate(157.02 186.74)"><tspan x="0" y="0">8:15</tspan></text><text class="cls-7" transform="translate(192.34 186.74)"><tspan x="0" y="0">7:36</tspan></text><text class="cls-2" transform="translate(242.63 6.84)"><tspan x="0" y="0">This week</tspan></text><text class="cls-2" transform="translate(242.63 18.72)"><tspan x="0" y="0">Last week</tspan></text></g></svg>